30 Days Of Night Dark Days (2010) 1080p DTS       


30 Days Of Night : Dark Days (2010) MKV 1080p Custom NL SubZZZ



Verenigde Staten
Horror / Thriller
92 minuten

geregisseerd door Ben Ketai
met Kiele Sanchez, Mia Kirshner en Rhys Coiro

"Dark Days" vertelt het verhaal van Stella Olemaun die onderweg is naar Los Angeles nadat ze de vampierenaanval in Barrow, Alaska heeft overleefd. Ze trekt expres de aandacht van de plaatselijke vampieren, om de dood van haar man Ebens te wreken.

English

It has been a year since the isolated Alaskan town of Barrow's population was decimated by vampires during its annual month long sunset. Riddled with grief over the death of her husband Eben, bound by nightmares and void of all emotions beyond hate and sorrow, Stella Oleson has spent the past months traveling the world, trying to convince others that vampires exist. Met with skepticism and laughter, she is ready to throw in the towel when a group of lost souls offers an incredible opportunity: the chance to exact revenge upon Lilith, the vampire queen responsible for the assault on her sleepy Alaskan town. With nothing remaining to live for, and nothing left to fear, Stella joins their mission and ventures into the uncharted underbelly of Los Angeles where she pushes herself to the most extreme limits to stop the evil from striking again.


Spotinformatie 
Categorie : Beeld 
Formaat : HD Overig 
Bron : Retail
 
Ondertitels : Nederlands (instelbaar)
Engels (instelbaar)

Format                           : Matroska
File size                        : 7.94 GiB
Duration                         : 1h 32mn
Overall bit rate                 : 12.3 Mbps
Encoded date                     : UTC 2010-09-24 15:42:50
Writing application              : mkvmerge v4.3.0 ('Escape from the Island') built on Sep  5 2010 10:30:51
Writing library                  : libebml v1.0.0 + libmatroska v1.0.0

Video
ID                               : 1
Format                           : AVC
Format/Info                      : Advanced Video Codec
Format profile                   : High@L5.0
Format settings, CABAC           : Yes
Format settings, ReFrames        : 5 frames
Muxing mode                      : Container profile=Unknown@5.0
Codec ID                         : V_MPEG4/ISO/AVC
Duration                         : 1h 32mn
Bit rate                         : 10.5 Mbps
Nominal bit rate                 : 10.8 Mbps
Width                            : 1 920 pixels
Height                           : 1 040 pixels
Display aspect ratio             : 16/9
Frame rate                       : 23.976 fps
Resolution                       : 24 bits
Colorimetry                      : 4:2:0
Scan type                        : Progressive
Bits/(Pixel*Frame)               : 0.220
Stream size                      : 6.80 GiB (86%)
Title                            : twiz-darkdays-1080p
Writing library                  : x264 core 105 r1724 b02df7b
Encoding settings                : cabac=1 / ref=5 / deblock=1:0:0 / analyse=0x3:0x133 / me=umh / subme=7 / psy=1 / psy_rd=1.00:0.00 / mixed_ref=1 / me_range=16 / chroma_me=1 / trellis=1 / 8x8dct=1 / cqm=0 / deadzone=21,11 / fast_pskip=0 / chroma_qp_offset=-2 / threads=12 / sliced_threads=0 / nr=0 / decimate=1 / interlaced=0 / constrained_intra=0 / bframes=3 / b_pyramid=2 / b_adapt=1 / b_bias=0 / direct=1 / weightb=1 / open_gop=0 / weightp=2 / keyint=240 / keyint_min=25 / scenecut=40 / intra_refresh=0 / rc_lookahead=40 / rc=2pass / mbtree=1 / bitrate=10798 / ratetol=1.0 / qcomp=0.60 / qpmin=10 / qpmax=51 / qpstep=4 / cplxblur=20.0 / qblur=0.5 / ip_ratio=1.40 / aq=1:1.00

Audio
ID                               : 2
Format                           : DTS
Format/Info                      : Digital Theater Systems
Codec ID                         : A_DTS
Duration                         : 1h 32mn
Bit rate mode                    : Constant
Bit rate                         : 1 510 Kbps
Channel(s)                       : 6 channels
Channel positions                : Front: L C R, Surround: L R, LFE
Sampling rate                    : 48.0 KHz
Resolution                       : 24 bits
Stream size                      : 998 MiB (12%)
Title                            : twiz-darkdays-1080p

Text #1
ID                               : 3
Format                           : UTF-8
Codec ID                         : S_TEXT/UTF8
Codec ID/Info                    : UTF-8 Plain Text
Title                            : twiz-darkdays-1080p

Text #2
ID                               : 4
Format                           : UTF-8
Codec ID                         : S_TEXT/UTF8
Codec ID/Info                    : UTF-8 Plain Text
Title                            : twiz-darkdays-1080p

Menu
00:00:00.000                     : en:00:00:00.000
00:07:37.457                     : en:00:07:37.457
00:09:41.498                     : en:00:09:41.498
00:14:00.006                     : en:00:14:00.006
00:19:30.711                     : en:00:19:30.711
00:26:19.912                     : en:00:26:19.912
00:33:24.711                     : en:00:33:24.711
00:38:21.674                     : en:00:38:21.674
00:43:40.576                     : en:00:43:40.576
00:51:58.615                     : en:00:51:58.615
00:56:26.466                     : en:00:56:26.466
01:02:37.170                     : en:01:02:37.170
01:09:41.427                     : en:01:09:41.427
01:14:19.872                     : en:01:14:19.872
01:20:07.469                     : en:01:20:07.469
 
Genre : Horror
Thriller
 
Weblink :  http://www.moviemeter.nl/film/63023
Weblink :  http://www.imdb.com/title/tt1320304 

******************************************



Brought to you by 
Pioen
2Lions Team

meer zien??
Kom dan eens kijken op ons forum 
   
http://www.2lions-site.nl


2Lions the site to be for all your Dutch MOVIES and more

******************************************


DON T HIT AND RUN Niet gelijk afhaken als de FILM binnen is blijf seeden. 

Don`t quit after you finished the download, but keep seeding


There are fake torrents from uploaders who use our team name.
Those are not ours, or members from our team.
We 2Lions-Team are not responsible for the fake posts on our name

Wij 2Lions-Team zijn niet verantwoordelijk voor die zieke FAKE posten die op onze naam worden gedaan

Please check our site !!!
NEW SITE   
http://www.2lions-site.nl 
 
 
